# xmcd
#
# Track frame offsets:
#	150
#	14016
#	27949
#	41433
#	54143
#	65216
#	78242
#	92582
#	107497
#	121525
#	136009
#	149023
#	162895
#	177265
#
# Disc length: 2546 seconds
#
# Revision: 3
# Processed by: cddbd v1.5.2PL0 Copyright (c) Steve Scherf et al.
# Submitted via: EasyCDDAExtractor 12.0.4.1
#
DISCID=ae09f00e
DTITLE=ผ่องศรี วรนุช - ไหนว่าไม่ลืม
DYEAR=1977
DGENRE=Country
TTITLE0=สาวเหนือเบื่อรัก
TTITLE1=ไหนว่าไม่ลืม
TTITLE2=กอดหมอนนอนหนาว
TTITLE3=แผลรักปักใจ
TTITLE4=ด่วนพิศวาส
TTITLE5=นี่หรือว่าไม่ลืม
TTITLE6=พ่อน้ำตาลก้นเปรี้ยว
TTITLE7=รักร้อนยิ่งกว่าไฟ
TTITLE8=ผัวจ๋า
TTITLE9=วิมานในฝัน
TTITLE10=วิวาห์ราตรี
TTITLE11=หากฉันจะรักคุณ
TTITLE12=บวชเสียเถิดพี่
TTITLE13=คอยพี่กลับมา
EXTD=
EXTT0=
EXTT1=
EXTT2=
EXTT3=
EXTT4=
EXTT5=
EXTT6=
EXTT7=
EXTT8=
EXTT9=
EXTT10=
EXTT11=
EXTT12=
EXTT13=
PLAYORDER=
